<svg width="419" height="244" viewBox="0 0 419 244" fill="none" xmlns="http://www.w3.org/2000/svg">
<g clip-path="url(#clip0_3037_43)">
<path d="M326.901 199.944H-65.1551C-65.6282 199.944 -66 199.572 -66 199.097V16.0972C-66 15.6228 -65.6282 15.25 -65.1551 15.25H326.901C377.682 15.25 419 56.6792 419 107.597C419 158.515 377.682 199.944 326.901 199.944ZM-64.3101 198.25H326.901C376.753 198.25 417.31 157.583 417.31 107.597C417.31 57.6111 376.753 16.9444 326.901 16.9444H-64.3101V198.25Z" fill="white" fill-opacity="0.5"/>
<path d="M3.28569 244C28.4849 244 48.9129 223.517 48.9129 198.25C48.9129 172.983 28.4849 152.5 3.28569 152.5C-21.9135 152.5 -42.3415 172.983 -42.3415 198.25C-42.3415 223.517 -21.9135 244 3.28569 244Z" fill="#1A52B9"/>
<path d="M184.105 30.5C192.504 30.5 199.314 23.6723 199.314 15.25C199.314 6.82766 192.504 0 184.105 0C175.705 0 168.896 6.82766 168.896 15.25C168.896 23.6723 175.705 30.5 184.105 30.5Z" fill="#FF5156"/>
<path d="M183.31 20.7569V132.963" stroke="white" stroke-miterlimit="10"/>
</g>
<defs>
<clipPath id="clip0_3037_43">
<rect width="485" height="244" fill="white" transform="translate(-66)"/>
</clipPath>
</defs>
</svg>
