<svg width="44" height="44" viewBox="0 0 44 44" fill="none" xmlns="http://www.w3.org/2000/svg">
<path fill-rule="evenodd" clip-rule="evenodd" d="M22 44C34.1503 44 44 34.1503 44 22C44 9.84974 34.1503 0 22 0C9.84974 0 0 9.84974 0 22C0 34.1503 9.84974 44 22 44Z" fill="white"/>
<path d="M22.1146 35.6806L14.1783 33.4774L12.4097 13.6409H31.8433L30.0728 33.4744L22.1146 35.6806V35.6806Z" fill="#264DE4"/>
<path d="M28.5572 32.2111L30.0701 15.2625H22.1265V33.9939L28.5572 32.2111V32.2111Z" fill="#2965F1"/>
<path d="M16.4641 22.6197L16.6821 25.0526H22.1264V22.6197H16.4641ZM16.0259 17.6956L16.247 20.1284H22.1264V17.6956H16.0259V17.6956ZM22.1264 28.9382L22.1157 28.941L19.4062 28.2094L19.233 26.2691H16.7908L17.1316 30.0891L22.1152 31.4724L22.1264 31.4694V28.9382Z" fill="#EBEBEB"/>
<path d="M16.9834 8.25H19.9299V9.48224H18.2156V10.7145H19.9301V11.9467H16.9834V8.25ZM20.5193 8.25H23.4659V9.32151H21.7516V9.5358H23.4659V12.0003H20.5194V10.8751H22.2338V10.6608H20.5192V8.25H20.5193ZM24.0553 8.25H27.0019V9.32151H25.2876V9.5358H27.0019V12.0003H24.0553V10.8751H25.7697V10.6608H24.0554V8.25H24.0553Z" fill="black"/>
<path d="M27.7734 22.6197L28.2126 17.6956H22.1182V20.1284H25.5464L25.325 22.6197H22.1182V25.0526H25.1141L24.8316 28.2079L22.1182 28.9402V31.4713L27.1057 30.0891L27.1423 29.678L27.7141 23.273L27.7734 22.6197V22.6197Z" fill="white"/>
</svg>
