<svg width="44" height="44" viewBox="0 0 44 44" fill="none" xmlns="http://www.w3.org/2000/svg">
<path fill-rule="evenodd" clip-rule="evenodd" d="M22 44C34.1503 44 44 34.1503 44 22C44 9.84974 34.1503 0 22 0C9.84974 0 0 9.84974 0 22C0 34.1503 9.84974 44 22 44Z" fill="black"/>
<path d="M17.96 34C20.1459 34 21.92 32.208 21.92 30V26H17.96C15.7741 26 14 27.792 14 30C14 32.208 15.7741 34 17.96 34Z" fill="#0ACF83"/>
<path d="M14 22C14 19.792 15.7741 18 17.96 18H21.92V26H17.96C15.7741 26 14 24.208 14 22Z" fill="#A259FF"/>
<path d="M14 14C14 11.792 15.7741 10 17.96 10H21.92V18H17.96C15.7741 18 14 16.208 14 14Z" fill="#F24E1E"/>
<path d="M21.9199 10H25.8799C28.0658 10 29.8399 11.792 29.8399 14C29.8399 16.208 28.0658 18 25.8799 18H21.9199V10Z" fill="#FF7262"/>
<path d="M29.8399 22C29.8399 24.208 28.0658 26 25.8799 26C23.694 26 21.9199 24.208 21.9199 22C21.9199 19.792 23.694 18 25.8799 18C28.0658 18 29.8399 19.792 29.8399 22Z" fill="#1ABCFE"/>
</svg>
