<svg width="44" height="44" viewBox="0 0 44 44" fill="none" xmlns="http://www.w3.org/2000/svg">
<path fill-rule="evenodd" clip-rule="evenodd" d="M22 44C34.1503 44 44 34.1503 44 22C44 9.84974 34.1503 0 22 0C9.84974 0 0 9.84974 0 22C0 34.1503 9.84974 44 22 44Z" fill="white"/>
<g clip-path="url(#clip0_3152_80)">
<path d="M13.4362 25.8102L9.625 21.999L22 9.625H29.6215L13.4362 25.8102ZM29.6215 21.0437H22L19.1451 23.8986L22.9563 27.7098" fill="#42A5F5" fill-opacity="0.8"/>
<path d="M19.145 31.5202L21.9999 34.3751H29.6214L22.9563 27.71" fill="#0D47A1"/>
<path d="M15.3433 27.7117L19.1485 23.9055L22.9537 27.7107L19.1485 31.517L15.3433 27.7117Z" fill="#42A5F5"/>
<path d="M19.1479 31.5171L22.9532 27.7119L23.4844 28.2431L19.6791 32.0483L19.1479 31.5171Z" fill="url(#paint0_linear_3152_80)"/>
<path d="M19.145 31.52L24.7998 29.5663L22.9562 27.7087" fill="url(#paint1_linear_3152_80)"/>
</g>
<defs>
<linearGradient id="paint0_linear_3152_80" x1="21.0513" y1="29.6138" x2="21.5825" y2="30.145" gradientUnits="userSpaceOnUse">
<stop offset="0.2" stop-opacity="0.15"/>
<stop offset="0.85" stop-color="#616161" stop-opacity="0.01"/>
</linearGradient>
<linearGradient id="paint1_linear_3152_80" x1="19.1464" y1="29.6145" x2="24.801" y2="29.6145" gradientUnits="userSpaceOnUse">
<stop offset="0.2" stop-opacity="0.55"/>
<stop offset="0.85" stop-color="#616161" stop-opacity="0.01"/>
</linearGradient>
<clipPath id="clip0_3152_80">
<rect width="19.9965" height="24.75" fill="white" transform="translate(9.625 9.625)"/>
</clipPath>
</defs>
</svg>
