<svg width="235" height="302" viewBox="0 0 235 302" fill="none" xmlns="http://www.w3.org/2000/svg">
<g clip-path="url(#clip0_3049_565)">
<path d="M28.0696 2.18614C28.0696 3.39373 27.0895 4.37229 25.88 4.37229C24.6705 4.37229 23.6904 3.39373 23.6904 2.18614C23.6904 0.978559 24.6705 0 25.88 0C27.0895 0 28.0696 0.978559 28.0696 2.18614Z" fill="white" fill-opacity="0.3"/>
<path d="M55.4296 4.37229C56.6389 4.37229 57.6192 3.39352 57.6192 2.18614C57.6192 0.978769 56.6389 0 55.4296 0C54.2203 0 53.24 0.978769 53.24 2.18614C53.24 3.39352 54.2203 4.37229 55.4296 4.37229Z" fill="white" fill-opacity="0.3"/>
<path d="M87.1896 2.18614C87.1896 3.39373 86.2095 4.37229 85 4.37229C83.7905 4.37229 82.8104 3.39373 82.8104 2.18614C82.8104 0.978559 83.7905 0 85 0C86.2095 0 87.1896 0.978559 87.1896 2.18614Z" fill="white" fill-opacity="0.3"/>
<path d="M116.76 2.18614C116.76 3.39373 115.78 4.37229 114.57 4.37229C113.361 4.37229 112.381 3.39373 112.381 2.18614C112.36 0.978559 113.34 0 114.55 0C115.78 0 116.76 0.978559 116.76 2.18614Z" fill="white" fill-opacity="0.3"/>
<path d="M144.12 4.37229C145.329 4.37229 146.31 3.39352 146.31 2.18614C146.31 0.978769 145.329 0 144.12 0C142.911 0 141.93 0.978769 141.93 2.18614C141.93 3.39352 142.911 4.37229 144.12 4.37229Z" fill="white" fill-opacity="0.3"/>
<path d="M173.69 4.37229C174.9 4.37229 175.88 3.39352 175.88 2.18614C175.88 0.978769 174.9 0 173.69 0C172.481 0 171.501 0.978769 171.501 2.18614C171.501 3.39352 172.481 4.37229 173.69 4.37229Z" fill="white" fill-opacity="0.3"/>
<path d="M205.43 2.18614C205.43 3.39373 204.449 4.37229 203.24 4.37229C202.03 4.37229 201.05 3.39373 201.05 2.18614C201.05 0.978559 202.03 0 203.24 0C204.449 0 205.43 0.978559 205.43 2.18614Z" fill="white" fill-opacity="0.3"/>
<path d="M232.81 4.37229C234.02 4.37229 235 3.39352 235 2.18614C235 0.978769 234.02 0 232.81 0C231.601 0 230.621 0.978769 230.621 2.18614C230.621 3.39352 231.601 4.37229 232.81 4.37229Z" fill="white" fill-opacity="0.3"/>
<path d="M28.0696 31.9594C28.0696 33.1669 27.0895 34.1455 25.88 34.1455C24.6705 34.1455 23.6904 33.1669 23.6904 31.9594C23.6904 30.7518 24.6705 29.7732 25.88 29.7732C27.0895 29.7524 28.0696 30.7518 28.0696 31.9594Z" fill="white" fill-opacity="0.3"/>
<path d="M55.4296 34.1455C56.6389 34.1455 57.6192 33.1667 57.6192 31.9593C57.6192 30.752 56.6389 29.7732 55.4296 29.7732C54.2203 29.7732 53.24 30.752 53.24 31.9593C53.24 33.1667 54.2203 34.1455 55.4296 34.1455Z" fill="white" fill-opacity="0.3"/>
<path d="M87.1896 31.9594C87.1896 33.1669 86.2095 34.1455 85 34.1455C83.7905 34.1455 82.8104 33.1669 82.8104 31.9594C82.8104 30.7518 83.7905 29.7732 85 29.7732C86.2095 29.7524 87.1896 30.7518 87.1896 31.9594Z" fill="white" fill-opacity="0.3"/>
<path d="M116.76 31.9594C116.76 33.1669 115.78 34.1455 114.57 34.1455C113.361 34.1455 112.381 33.1669 112.381 31.9594C112.381 30.7518 113.361 29.7732 114.57 29.7732C115.78 29.7524 116.76 30.7518 116.76 31.9594Z" fill="white" fill-opacity="0.3"/>
<path d="M144.12 34.1455C145.329 34.1455 146.31 33.1667 146.31 31.9593C146.31 30.752 145.329 29.7732 144.12 29.7732C142.911 29.7732 141.93 30.752 141.93 31.9593C141.93 33.1667 142.911 34.1455 144.12 34.1455Z" fill="white" fill-opacity="0.3"/>
<path d="M173.69 34.1455C174.9 34.1455 175.88 33.1667 175.88 31.9593C175.88 30.752 174.9 29.7732 173.69 29.7732C172.481 29.7732 171.501 30.752 171.501 31.9593C171.501 33.1667 172.481 34.1455 173.69 34.1455Z" fill="white" fill-opacity="0.3"/>
<path d="M205.43 31.9594C205.43 33.1669 204.449 34.1455 203.24 34.1455C202.03 34.1455 201.05 33.1669 201.05 31.9594C201.05 30.7518 202.03 29.7732 203.24 29.7732C204.449 29.7524 205.43 30.7518 205.43 31.9594Z" fill="white" fill-opacity="0.3"/>
<path d="M232.81 34.1455C234.02 34.1455 235 33.1667 235 31.9593C235 30.752 234.02 29.7732 232.81 29.7732C231.601 29.7732 230.621 30.752 230.621 31.9593C230.621 33.1667 231.601 34.1455 232.81 34.1455Z" fill="white" fill-opacity="0.3"/>
<path d="M28.0696 61.7117C28.0696 62.9192 27.0895 63.8978 25.88 63.8978C24.6705 63.8978 23.6904 62.9192 23.6904 61.7117C23.6904 60.5041 24.6705 59.5255 25.88 59.5255C27.0895 59.5255 28.0696 60.5041 28.0696 61.7117Z" fill="white" fill-opacity="0.3"/>
<path d="M55.4296 63.8978C56.6389 63.8978 57.6192 62.919 57.6192 61.7117C57.6192 60.5043 56.6389 59.5255 55.4296 59.5255C54.2203 59.5255 53.24 60.5043 53.24 61.7117C53.24 62.919 54.2203 63.8978 55.4296 63.8978Z" fill="white" fill-opacity="0.3"/>
<path d="M87.1896 61.7117C87.1896 62.9192 86.2095 63.8978 85 63.8978C83.7905 63.8978 82.8104 62.9192 82.8104 61.7117C82.8104 60.5041 83.7905 59.5255 85 59.5255C86.2095 59.5255 87.1896 60.5041 87.1896 61.7117Z" fill="white" fill-opacity="0.3"/>
<path d="M116.76 61.7117C116.76 62.9192 115.78 63.8978 114.57 63.8978C113.361 63.8978 112.381 62.9192 112.381 61.7117C112.381 60.5041 113.361 59.5255 114.57 59.5255C115.78 59.5255 116.76 60.5041 116.76 61.7117Z" fill="white" fill-opacity="0.3"/>
<path d="M144.12 63.8978C145.329 63.8978 146.31 62.919 146.31 61.7117C146.31 60.5043 145.329 59.5255 144.12 59.5255C142.911 59.5255 141.93 60.5043 141.93 61.7117C141.93 62.919 142.911 63.8978 144.12 63.8978Z" fill="white" fill-opacity="0.3"/>
<path d="M173.69 63.8978C174.9 63.8978 175.88 62.919 175.88 61.7117C175.88 60.5043 174.9 59.5255 173.69 59.5255C172.481 59.5255 171.501 60.5043 171.501 61.7117C171.501 62.919 172.481 63.8978 173.69 63.8978Z" fill="white" fill-opacity="0.3"/>
<path d="M205.43 61.7117C205.43 62.9192 204.449 63.8978 203.24 63.8978C202.03 63.8978 201.05 62.9192 201.05 61.7117C201.05 60.5041 202.03 59.5255 203.24 59.5255C204.449 59.5255 205.43 60.5041 205.43 61.7117Z" fill="white" fill-opacity="0.3"/>
<path d="M232.81 63.8978C234.02 63.8978 235 62.919 235 61.7117C235 60.5043 234.02 59.5255 232.81 59.5255C231.601 59.5255 230.621 60.5043 230.621 61.7117C230.621 62.919 231.601 63.8978 232.81 63.8978Z" fill="white" fill-opacity="0.3"/>
<path d="M28.0696 91.4849C28.0696 92.6925 27.0895 93.671 25.88 93.671C24.6705 93.671 23.6904 92.6925 23.6904 91.4849C23.6904 90.2773 24.6705 89.2987 25.88 89.2987C27.0895 89.2779 28.0696 90.2565 28.0696 91.4849Z" fill="white" fill-opacity="0.3"/>
<path d="M55.4296 93.671C56.6389 93.671 57.6192 92.6922 57.6192 91.4848C57.6192 90.2775 56.6389 89.2987 55.4296 89.2987C54.2203 89.2987 53.24 90.2775 53.24 91.4848C53.24 92.6922 54.2203 93.671 55.4296 93.671Z" fill="white" fill-opacity="0.3"/>
<path d="M87.1896 91.4849C87.1896 92.6925 86.2095 93.671 85 93.671C83.7905 93.671 82.8104 92.6925 82.8104 91.4849C82.8104 90.2773 83.7905 89.2987 85 89.2987C86.2095 89.2779 87.1896 90.2565 87.1896 91.4849Z" fill="white" fill-opacity="0.3"/>
<path d="M116.76 91.4849C116.76 92.6925 115.78 93.671 114.57 93.671C113.361 93.671 112.381 92.6925 112.381 91.4849C112.381 90.2773 113.361 89.2987 114.57 89.2987C115.78 89.2779 116.76 90.2565 116.76 91.4849Z" fill="white" fill-opacity="0.3"/>
<path d="M144.12 93.671C145.329 93.671 146.31 92.6922 146.31 91.4848C146.31 90.2775 145.329 89.2987 144.12 89.2987C142.911 89.2987 141.93 90.2775 141.93 91.4848C141.93 92.6922 142.911 93.671 144.12 93.671Z" fill="white" fill-opacity="0.3"/>
<path d="M173.69 93.671C174.9 93.671 175.88 92.6922 175.88 91.4848C175.88 90.2775 174.9 89.2987 173.69 89.2987C172.481 89.2987 171.501 90.2775 171.501 91.4848C171.501 92.6922 172.481 93.671 173.69 93.671Z" fill="white" fill-opacity="0.3"/>
<path d="M205.43 91.4849C205.43 92.6925 204.449 93.671 203.24 93.671C202.03 93.671 201.05 92.6925 201.05 91.4849C201.05 90.2773 202.03 89.2987 203.24 89.2987C204.449 89.2779 205.43 90.2565 205.43 91.4849Z" fill="white" fill-opacity="0.3"/>
<path d="M232.81 93.671C234.02 93.671 235 92.6922 235 91.4848C235 90.2775 234.02 89.2987 232.81 89.2987C231.601 89.2987 230.621 90.2775 230.621 91.4848C230.621 92.6922 231.601 93.671 232.81 93.671Z" fill="white" fill-opacity="0.3"/>
<path d="M28.0696 121.237C28.0696 122.445 27.0895 123.423 25.88 123.423C24.6705 123.423 23.6904 122.445 23.6904 121.237C23.6904 120.03 24.6705 119.051 25.88 119.051C27.0895 119.051 28.0696 120.03 28.0696 121.237Z" fill="white" fill-opacity="0.3"/>
<path d="M55.4296 123.423C56.6389 123.423 57.6192 122.445 57.6192 121.237C57.6192 120.03 56.6389 119.051 55.4296 119.051C54.2203 119.051 53.24 120.03 53.24 121.237C53.24 122.445 54.2203 123.423 55.4296 123.423Z" fill="white" fill-opacity="0.3"/>
<path d="M87.1896 121.237C87.1896 122.445 86.2095 123.423 85 123.423C83.7905 123.423 82.8104 122.445 82.8104 121.237C82.8104 120.03 83.7905 119.051 85 119.051C86.2095 119.051 87.1896 120.03 87.1896 121.237Z" fill="white" fill-opacity="0.3"/>
<path d="M116.76 121.237C116.76 122.445 115.78 123.423 114.57 123.423C113.361 123.423 112.381 122.445 112.381 121.237C112.381 120.03 113.361 119.051 114.57 119.051C115.78 119.051 116.76 120.03 116.76 121.237Z" fill="white" fill-opacity="0.3"/>
<path d="M144.12 123.423C145.329 123.423 146.31 122.445 146.31 121.237C146.31 120.03 145.329 119.051 144.12 119.051C142.911 119.051 141.93 120.03 141.93 121.237C141.93 122.445 142.911 123.423 144.12 123.423Z" fill="white" fill-opacity="0.3"/>
<path d="M173.69 123.423C174.9 123.423 175.88 122.445 175.88 121.237C175.88 120.03 174.9 119.051 173.69 119.051C172.481 119.051 171.501 120.03 171.501 121.237C171.501 122.445 172.481 123.423 173.69 123.423Z" fill="white" fill-opacity="0.3"/>
<path d="M205.43 121.237C205.43 122.445 204.449 123.423 203.24 123.423C202.03 123.423 201.05 122.445 201.05 121.237C201.05 120.03 202.03 119.051 203.24 119.051C204.449 119.051 205.43 120.03 205.43 121.237Z" fill="white" fill-opacity="0.3"/>
<path d="M232.81 123.423C234.02 123.423 235 122.445 235 121.237C235 120.03 234.02 119.051 232.81 119.051C231.601 119.051 230.621 120.03 230.621 121.237C230.621 122.445 231.601 123.423 232.81 123.423Z" fill="white" fill-opacity="0.3"/>
<path d="M28.0696 150.99C28.0696 152.197 27.0895 153.176 25.88 153.176C24.6705 153.176 23.6904 152.197 23.6904 150.99C23.6904 149.782 24.6705 148.803 25.88 148.803C27.0895 148.803 28.0696 149.782 28.0696 150.99Z" fill="white" fill-opacity="0.3"/>
<path d="M55.4296 153.176C56.6389 153.176 57.6192 152.197 57.6192 150.99C57.6192 149.782 56.6389 148.803 55.4296 148.803C54.2203 148.803 53.24 149.782 53.24 150.99C53.24 152.197 54.2203 153.176 55.4296 153.176Z" fill="white" fill-opacity="0.3"/>
<path d="M87.1896 150.99C87.1896 152.197 86.2095 153.176 85 153.176C83.7905 153.176 82.8104 152.197 82.8104 150.99C82.8104 149.782 83.7905 148.803 85 148.803C86.2095 148.803 87.1896 149.782 87.1896 150.99Z" fill="white" fill-opacity="0.3"/>
<path d="M116.76 150.99C116.76 152.197 115.78 153.176 114.57 153.176C113.361 153.176 112.381 152.197 112.381 150.99C112.381 149.782 113.361 148.803 114.57 148.803C115.78 148.803 116.76 149.782 116.76 150.99Z" fill="white" fill-opacity="0.3"/>
<path d="M144.12 153.176C145.329 153.176 146.31 152.197 146.31 150.99C146.31 149.782 145.329 148.803 144.12 148.803C142.911 148.803 141.93 149.782 141.93 150.99C141.93 152.197 142.911 153.176 144.12 153.176Z" fill="white" fill-opacity="0.3"/>
<path d="M173.69 153.176C174.9 153.176 175.88 152.197 175.88 150.99C175.88 149.782 174.9 148.803 173.69 148.803C172.481 148.803 171.501 149.782 171.501 150.99C171.501 152.197 172.481 153.176 173.69 153.176Z" fill="white" fill-opacity="0.3"/>
<path d="M205.43 150.99C205.43 152.197 204.449 153.176 203.24 153.176C202.03 153.176 201.05 152.197 201.05 150.99C201.05 149.782 202.03 148.803 203.24 148.803C204.449 148.803 205.43 149.782 205.43 150.99Z" fill="white" fill-opacity="0.3"/>
<path d="M232.81 153.176C234.02 153.176 235 152.197 235 150.99C235 149.782 234.02 148.803 232.81 148.803C231.601 148.803 230.621 149.782 230.621 150.99C230.621 152.197 231.601 153.176 232.81 153.176Z" fill="white" fill-opacity="0.3"/>
<path d="M28.0696 180.763C28.0696 181.97 27.0895 182.949 25.88 182.949C24.6705 182.949 23.6904 181.97 23.6904 180.763C23.6904 179.555 24.6705 178.577 25.88 178.577C27.0895 178.577 28.0696 179.555 28.0696 180.763Z" fill="white" fill-opacity="0.3"/>
<path d="M55.4296 182.949C56.6389 182.949 57.6192 181.97 57.6192 180.763C57.6192 179.555 56.6389 178.577 55.4296 178.577C54.2203 178.577 53.24 179.555 53.24 180.763C53.24 181.97 54.2203 182.949 55.4296 182.949Z" fill="white" fill-opacity="0.3"/>
<path d="M87.1896 180.763C87.1896 181.97 86.2095 182.949 85 182.949C83.7905 182.949 82.8104 181.97 82.8104 180.763C82.8104 179.555 83.7905 178.577 85 178.577C86.2095 178.577 87.1896 179.555 87.1896 180.763Z" fill="white" fill-opacity="0.3"/>
<path d="M116.76 180.763C116.76 181.97 115.78 182.949 114.57 182.949C113.361 182.949 112.381 181.97 112.381 180.763C112.381 179.555 113.361 178.577 114.57 178.577C115.78 178.577 116.76 179.555 116.76 180.763Z" fill="white" fill-opacity="0.3"/>
<path d="M144.12 182.949C145.329 182.949 146.31 181.97 146.31 180.763C146.31 179.555 145.329 178.577 144.12 178.577C142.911 178.577 141.93 179.555 141.93 180.763C141.93 181.97 142.911 182.949 144.12 182.949Z" fill="white" fill-opacity="0.3"/>
<path d="M173.69 182.949C174.9 182.949 175.88 181.97 175.88 180.763C175.88 179.555 174.9 178.577 173.69 178.577C172.481 178.577 171.501 179.555 171.501 180.763C171.501 181.97 172.481 182.949 173.69 182.949Z" fill="white" fill-opacity="0.3"/>
<path d="M205.43 180.763C205.43 181.97 204.449 182.949 203.24 182.949C202.03 182.949 201.05 181.97 201.05 180.763C201.05 179.555 202.03 178.577 203.24 178.577C204.449 178.577 205.43 179.555 205.43 180.763Z" fill="white" fill-opacity="0.3"/>
<path d="M232.81 182.949C234.02 182.949 235 181.97 235 180.763C235 179.555 234.02 178.577 232.81 178.577C231.601 178.577 230.621 179.555 230.621 180.763C230.621 181.97 231.601 182.949 232.81 182.949Z" fill="white" fill-opacity="0.3"/>
<path d="M28.0696 210.515C28.0696 211.723 27.0895 212.701 25.88 212.701C24.6705 212.701 23.6904 211.723 23.6904 210.515C23.6904 209.308 24.6705 208.329 25.88 208.329C27.0895 208.329 28.0696 209.308 28.0696 210.515Z" fill="white" fill-opacity="0.3"/>
<path d="M55.4296 212.701C56.6389 212.701 57.6192 211.723 57.6192 210.515C57.6192 209.308 56.6389 208.329 55.4296 208.329C54.2203 208.329 53.24 209.308 53.24 210.515C53.24 211.723 54.2203 212.701 55.4296 212.701Z" fill="white" fill-opacity="0.3"/>
<path d="M87.1896 210.515C87.1896 211.723 86.2095 212.701 85 212.701C83.7905 212.701 82.8104 211.723 82.8104 210.515C82.8104 209.308 83.7905 208.329 85 208.329C86.2095 208.329 87.1896 209.308 87.1896 210.515Z" fill="white" fill-opacity="0.3"/>
<path d="M116.76 210.515C116.76 211.723 115.78 212.701 114.57 212.701C113.361 212.701 112.381 211.723 112.381 210.515C112.381 209.308 113.361 208.329 114.57 208.329C115.78 208.329 116.76 209.308 116.76 210.515Z" fill="white" fill-opacity="0.3"/>
<path d="M144.12 212.701C145.329 212.701 146.31 211.723 146.31 210.515C146.31 209.308 145.329 208.329 144.12 208.329C142.911 208.329 141.93 209.308 141.93 210.515C141.93 211.723 142.911 212.701 144.12 212.701Z" fill="white" fill-opacity="0.3"/>
<path d="M173.69 212.701C174.9 212.701 175.88 211.723 175.88 210.515C175.88 209.308 174.9 208.329 173.69 208.329C172.481 208.329 171.501 209.308 171.501 210.515C171.501 211.723 172.481 212.701 173.69 212.701Z" fill="white" fill-opacity="0.3"/>
<path d="M205.43 210.515C205.43 211.723 204.449 212.701 203.24 212.701C202.03 212.701 201.05 211.723 201.05 210.515C201.05 209.308 202.03 208.329 203.24 208.329C204.449 208.329 205.43 209.308 205.43 210.515Z" fill="white" fill-opacity="0.3"/>
<path d="M232.81 212.701C234.02 212.701 235 211.723 235 210.515C235 209.308 234.02 208.329 232.81 208.329C231.601 208.329 230.621 209.308 230.621 210.515C230.621 211.723 231.601 212.701 232.81 212.701Z" fill="white" fill-opacity="0.3"/>
<path d="M28.0696 240.288C28.0696 241.496 27.0895 242.474 25.88 242.474C24.6705 242.474 23.6904 241.496 23.6904 240.288C23.6904 239.081 24.6705 238.102 25.88 238.102C27.0895 238.081 28.0696 239.081 28.0696 240.288Z" fill="white" fill-opacity="0.3"/>
<path d="M55.4296 242.474C56.6389 242.474 57.6192 241.496 57.6192 240.288C57.6192 239.081 56.6389 238.102 55.4296 238.102C54.2203 238.102 53.24 239.081 53.24 240.288C53.24 241.496 54.2203 242.474 55.4296 242.474Z" fill="white" fill-opacity="0.3"/>
<path d="M87.1896 240.288C87.1896 241.496 86.2095 242.474 85 242.474C83.7905 242.474 82.8104 241.496 82.8104 240.288C82.8104 239.081 83.7905 238.102 85 238.102C86.2095 238.081 87.1896 239.081 87.1896 240.288Z" fill="white" fill-opacity="0.3"/>
<path d="M116.76 240.288C116.76 241.496 115.78 242.474 114.57 242.474C113.361 242.474 112.381 241.496 112.381 240.288C112.381 239.081 113.361 238.102 114.57 238.102C115.78 238.081 116.76 239.081 116.76 240.288Z" fill="white" fill-opacity="0.3"/>
<path d="M144.12 242.474C145.329 242.474 146.31 241.496 146.31 240.288C146.31 239.081 145.329 238.102 144.12 238.102C142.911 238.102 141.93 239.081 141.93 240.288C141.93 241.496 142.911 242.474 144.12 242.474Z" fill="white" fill-opacity="0.3"/>
<path d="M173.69 242.474C174.9 242.474 175.88 241.496 175.88 240.288C175.88 239.081 174.9 238.102 173.69 238.102C172.481 238.102 171.501 239.081 171.501 240.288C171.501 241.496 172.481 242.474 173.69 242.474Z" fill="white" fill-opacity="0.3"/>
<path d="M205.43 240.288C205.43 241.496 204.449 242.474 203.24 242.474C202.03 242.474 201.05 241.496 201.05 240.288C201.05 239.081 202.03 238.102 203.24 238.102C204.449 238.081 205.43 239.081 205.43 240.288Z" fill="white" fill-opacity="0.3"/>
<path d="M232.81 242.474C234.02 242.474 235 241.496 235 240.288C235 239.081 234.02 238.102 232.81 238.102C231.601 238.102 230.621 239.081 230.621 240.288C230.621 241.496 231.601 242.474 232.81 242.474Z" fill="white" fill-opacity="0.3"/>
<path d="M28.0696 270.041C28.0696 271.248 27.0895 272.227 25.88 272.227C24.6705 272.227 23.6904 271.248 23.6904 270.041C23.6904 268.833 24.6705 267.854 25.88 267.854C27.0895 267.854 28.0696 268.833 28.0696 270.041Z" fill="white" fill-opacity="0.3"/>
<path d="M55.4296 272.227C56.6389 272.227 57.6192 271.248 57.6192 270.041C57.6192 268.833 56.6389 267.854 55.4296 267.854C54.2203 267.854 53.24 268.833 53.24 270.041C53.24 271.248 54.2203 272.227 55.4296 272.227Z" fill="white" fill-opacity="0.3"/>
<path d="M87.1896 270.041C87.1896 271.248 86.2095 272.227 85 272.227C83.7905 272.227 82.8104 271.248 82.8104 270.041C82.8104 268.833 83.7905 267.854 85 267.854C86.2095 267.854 87.1896 268.833 87.1896 270.041Z" fill="white" fill-opacity="0.3"/>
<path d="M116.76 270.041C116.76 271.248 115.78 272.227 114.57 272.227C113.361 272.227 112.381 271.248 112.381 270.041C112.381 268.833 113.361 267.854 114.57 267.854C115.78 267.854 116.76 268.833 116.76 270.041Z" fill="white" fill-opacity="0.3"/>
<path d="M144.12 272.227C145.329 272.227 146.31 271.248 146.31 270.041C146.31 268.833 145.329 267.854 144.12 267.854C142.911 267.854 141.93 268.833 141.93 270.041C141.93 271.248 142.911 272.227 144.12 272.227Z" fill="white" fill-opacity="0.3"/>
<path d="M173.69 272.227C174.9 272.227 175.88 271.248 175.88 270.041C175.88 268.833 174.9 267.854 173.69 267.854C172.481 267.854 171.501 268.833 171.501 270.041C171.501 271.248 172.481 272.227 173.69 272.227Z" fill="white" fill-opacity="0.3"/>
<path d="M205.43 270.041C205.43 271.248 204.449 272.227 203.24 272.227C202.03 272.227 201.05 271.248 201.05 270.041C201.05 268.833 202.03 267.854 203.24 267.854C204.449 267.854 205.43 268.833 205.43 270.041Z" fill="white" fill-opacity="0.3"/>
<path d="M232.81 272.227C234.02 272.227 235 271.248 235 270.041C235 268.833 234.02 267.854 232.81 267.854C231.601 267.854 230.621 268.833 230.621 270.041C230.621 271.248 231.601 272.227 232.81 272.227Z" fill="white" fill-opacity="0.3"/>
<path d="M28.0696 299.814C28.0696 301.022 27.0895 302 25.88 302C24.6705 302 23.6904 301.022 23.6904 299.814C23.6904 298.606 24.6705 297.628 25.88 297.628C27.0895 297.607 28.0696 298.586 28.0696 299.814Z" fill="white" fill-opacity="0.3"/>
<path d="M55.4296 302C56.6389 302 57.6192 301.021 57.6192 299.814C57.6192 298.606 56.6389 297.628 55.4296 297.628C54.2203 297.628 53.24 298.606 53.24 299.814C53.24 301.021 54.2203 302 55.4296 302Z" fill="white" fill-opacity="0.3"/>
<path d="M87.1896 299.814C87.1896 301.022 86.2095 302 85 302C83.7905 302 82.8104 301.022 82.8104 299.814C82.8104 298.606 83.7905 297.628 85 297.628C86.2095 297.607 87.1896 298.586 87.1896 299.814Z" fill="white" fill-opacity="0.3"/>
<path d="M116.76 299.814C116.76 301.022 115.78 302 114.57 302C113.361 302 112.381 301.022 112.381 299.814C112.381 298.606 113.361 297.628 114.57 297.628C115.78 297.607 116.76 298.586 116.76 299.814Z" fill="white" fill-opacity="0.3"/>
<path d="M144.12 302C145.329 302 146.31 301.021 146.31 299.814C146.31 298.606 145.329 297.628 144.12 297.628C142.911 297.628 141.93 298.606 141.93 299.814C141.93 301.021 142.911 302 144.12 302Z" fill="white" fill-opacity="0.3"/>
<path d="M173.69 302C174.9 302 175.88 301.021 175.88 299.814C175.88 298.606 174.9 297.628 173.69 297.628C172.481 297.628 171.501 298.606 171.501 299.814C171.501 301.021 172.481 302 173.69 302Z" fill="white" fill-opacity="0.3"/>
<path d="M205.43 299.814C205.43 301.022 204.449 302 203.24 302C202.03 302 201.05 301.022 201.05 299.814C201.05 298.606 202.03 297.628 203.24 297.628C204.449 297.607 205.43 298.586 205.43 299.814Z" fill="white" fill-opacity="0.3"/>
<path d="M232.81 302C234.02 302 235 301.021 235 299.814C235 298.606 234.02 297.628 232.81 297.628C231.601 297.628 230.621 298.606 230.621 299.814C230.621 301.021 231.601 302 232.81 302Z" fill="white" fill-opacity="0.3"/>
</g>
<defs>
<clipPath id="clip0_3049_565">
<rect width="300" height="302" fill="white" transform="translate(-65)"/>
</clipPath>
</defs>
</svg>
