<svg width="236" height="51" viewBox="0 0 236 51" fill="none" xmlns="http://www.w3.org/2000/svg">
<path d="M94.8797 19.1438H102.596C101.309 10.9393 94.2056 5.22461 84.9612 5.22461C74.023 5.22461 65.8151 13.2665 65.8151 26.7351C65.8151 39.9632 73.6537 48.1676 85.1847 48.1676C95.5335 48.1676 102.942 41.5112 102.942 30.7358V25.7155H85.9808V31.6335H95.6148C95.4929 37.5953 91.5126 41.369 85.2254 41.369C78.2268 41.369 73.4302 36.1251 73.4302 26.6538C73.4302 17.2434 78.3081 12.0199 85.0628 12.0199C90.1034 12.0199 93.5518 14.713 94.8797 19.1438Z" fill="#D9ECFF"/>
<path d="M108.044 47.5954H115.432V16.2612H108.044V47.5954ZM111.77 11.2816C114.118 11.2816 116.035 9.48282 116.035 7.28096C116.035 5.07909 114.118 3.26001 111.77 3.26001C109.423 3.26001 107.485 5.05538 107.485 7.28096C107.485 9.50654 109.389 11.2816 111.757 11.2816H111.77Z" fill="#D9ECFF"/>
<path d="M137.555 16.2611H131.37V8.73413H123.982V16.2611H119.534V21.9758H123.982V39.4077C123.941 45.3053 128.23 48.2152 133.778 48.0424C135.256 48.0133 136.722 47.7653 138.128 47.3073L136.881 41.5283C136.175 41.7115 135.449 41.8084 134.72 41.8162C132.86 41.8162 131.37 41.1624 131.37 38.1814V21.9589H137.555V16.2611Z" fill="#D9ECFF"/>
<path d="M143.274 47.5952H169.256V41.2471H150.848V5.7937H143.274V47.5952Z" fill="#D9ECFF"/>
<path d="M183.408 48.2288C188.327 48.2288 191.264 45.9219 192.612 43.2898H192.856V47.5953H199.969V26.6132C199.969 18.3274 193.215 15.8376 187.232 15.8376C180.64 15.8376 175.58 18.7746 173.947 24.4893L180.847 25.4717C181.579 23.3274 183.662 21.4914 187.283 21.4914C190.715 21.4914 192.591 23.2461 192.591 26.3287V26.4506C192.591 28.5712 190.366 28.6762 184.834 29.2656C178.754 29.9194 172.937 31.7351 172.937 38.798C172.917 44.9633 177.426 48.2288 183.408 48.2288ZM185.837 42.8088C182.754 42.8088 180.549 41.3996 180.549 38.6862C180.549 35.8475 183.018 34.6653 186.308 34.1944C188.249 33.9302 192.127 33.439 193.083 32.6667V36.359C193.103 39.838 190.285 42.7986 185.837 42.7986V42.8088Z" fill="#D9ECFF"/>
<path d="M205.41 47.5953H212.676V42.6563H213.103C214.268 44.9429 216.697 48.1474 222.087 48.1474C229.475 48.1474 235.007 42.2871 235.007 31.962C235.007 21.5116 229.312 15.8376 222.066 15.8376C216.535 15.8376 214.228 19.1641 213.103 21.4303H212.792V5.7937H205.41V47.5953ZM212.656 31.9214C212.656 25.8239 215.268 21.8978 220.024 21.8978C224.942 21.8978 227.476 26.0814 227.476 31.9214C227.476 37.7614 224.905 42.0838 220.024 42.0838C215.308 42.0838 212.656 38.0019 212.656 31.9214Z" fill="#D9ECFF"/>
<path d="M51.8859 20.1127L51.8147 19.923L44.6332 1.19023C44.4879 0.822406 44.2291 0.510381 43.8948 0.29932C43.6451 0.139556 43.3616 0.0404825 43.0669 0.0100392C42.7722 -0.0204065 42.4744 0.0186265 42.1973 0.124008C41.9206 0.229393 41.6719 0.398191 41.472 0.61688C41.2722 0.835566 41.1262 1.09806 41.0459 1.38332L36.1984 16.2239H16.5679L11.7204 1.38332C11.6395 1.09849 11.4933 0.836488 11.2932 0.618218C11.0931 0.399949 10.8448 0.231449 10.5681 0.126152C10.2913 0.0208554 9.99386 -0.0183222 9.69928 0.0117431C9.40474 0.0418104 9.12128 0.140285 8.87152 0.29932C8.53707 0.510381 8.2784 0.822406 8.13305 1.19023L0.954976 19.9264L0.880451 20.1127C-0.152983 22.8136 -0.280298 25.7772 0.517699 28.5568C1.31569 31.3363 2.99574 33.7812 5.30453 35.5223L5.33163 35.5427L5.39257 35.5901L16.3172 43.7776L21.7372 47.8731L25.0298 50.3629C25.4162 50.6549 25.8871 50.8128 26.3713 50.8128C26.8554 50.8128 27.3264 50.6549 27.7127 50.3629L31.0054 47.8731L36.4254 43.7776L47.4279 35.5427L47.4584 35.519C49.767 33.7785 51.4472 31.3344 52.2459 28.5555C53.0444 25.7766 52.918 22.8135 51.8859 20.1127Z" fill="#E24329"/>
<path d="M51.8857 20.1128L51.8146 19.9231C48.3157 20.6411 45.0186 22.1241 42.1603 24.2659L26.3915 36.1898L36.432 43.7777L47.4346 35.5428L47.4651 35.519C49.7726 33.7775 51.4515 31.3331 52.2489 28.5543C53.046 25.7755 52.9186 22.8129 51.8857 20.1128Z" fill="#FC6D26"/>
<path d="M16.3168 43.7777L21.7368 47.8731L25.0295 50.3629C25.4158 50.6549 25.8867 50.8128 26.3709 50.8128C26.8551 50.8128 27.326 50.6549 27.7124 50.3629L31.005 47.8731L36.425 43.7777L26.3845 36.1897L16.3168 43.7777Z" fill="#FCA326"/>
<path d="M10.6059 24.2659C7.74843 22.1252 4.45268 20.6433 0.954976 19.9265L0.880451 20.1128C-0.152983 22.8137 -0.280298 25.7773 0.517699 28.5569C1.31569 31.3364 2.99574 33.7812 5.30453 35.5224L5.33163 35.5427L5.39257 35.5902L16.3172 43.7777L26.3645 36.1897L10.6059 24.2659Z" fill="#FC6D26"/>
</svg>
