<svg width="175" height="50" viewBox="0 0 175 50" fill="none" xmlns="http://www.w3.org/2000/svg">
<path d="M18.9424 8.21069V22.1947H6.09522V8.21069H0V41.5925H6.09687V28.0622H18.9407V41.5925H25.0393V8.21069H18.9424ZM44.5542 30.803C44.5542 32.141 44.0227 33.4242 43.0766 34.3703C42.1304 35.3164 40.8472 35.8479 39.5092 35.8479C38.1712 35.8479 36.888 35.3164 35.9419 34.3703C34.9958 33.4242 34.4642 32.141 34.4642 30.803V16.5038H28.6809V30.803C28.6809 33.672 29.8206 36.4235 31.8493 38.4522C33.878 40.4809 36.6295 41.6206 39.4985 41.6206C42.3675 41.6206 45.119 40.4809 47.1477 38.4522C49.1764 36.4235 50.3161 33.672 50.3161 30.803V16.5038H44.5542V30.803ZM87.4072 17.9772C87.4072 15.0451 89.346 14.1162 91.4696 14.1162C93.1823 14.1162 95.4429 15.4197 96.923 17.0004L100.71 12.5354C98.8189 9.97788 94.9842 8.21069 91.8442 8.21069C85.5691 8.21069 81.0315 11.8853 81.0315 17.9772C81.0315 29.28 94.8456 25.6928 94.8456 32.019C94.8456 33.9694 92.9513 35.692 90.7832 35.692C87.3627 35.692 86.2538 34.0205 84.683 32.2517L80.4787 36.6226C83.1683 39.9227 86.4849 41.5991 90.4565 41.5991C96.4181 41.5991 101.213 37.8799 101.213 32.0652C101.213 19.5184 87.3973 23.4174 87.3973 17.9772M172.869 36.2596C169.452 36.2596 168.48 34.7812 168.48 32.5173V22.4934H173.793V17.4146H168.48V10.7138L162.616 13.3456V33.7631C162.616 38.9855 166.219 41.6173 171.16 41.6173C171.935 41.6305 172.711 41.5678 173.473 41.4325L174.904 36.1656C174.258 36.2101 173.518 36.2547 172.869 36.2547M66.569 16.6704C63.7045 16.6704 61.7047 17.502 59.7708 19.3979V8.41035H53.9792V28.7767C53.9792 36.3999 59.4903 41.6239 65.6845 41.6239C72.5553 41.6239 78.5993 36.3075 78.5993 29.1496C78.5993 22.0809 73.0371 16.6754 66.569 16.6754M66.5326 35.7943C65.6695 35.7943 64.8148 35.6243 64.0173 35.294C63.2198 34.9637 62.4953 34.4795 61.8849 33.8691C61.2746 33.2588 60.7904 32.5342 60.4601 31.7367C60.1298 30.9393 59.9597 30.0846 59.9597 29.2214C59.9597 28.3582 60.1298 27.5035 60.4601 26.7061C60.7904 25.9086 61.2746 25.184 61.8849 24.5736C62.4953 23.9633 63.2198 23.4791 64.0173 23.1488C64.8148 22.8185 65.6695 22.6485 66.5326 22.6485C68.2759 22.6485 69.9477 23.341 71.1804 24.5736C72.4131 25.8063 73.1056 27.4782 73.1056 29.2214C73.1056 30.9646 72.4131 32.6365 71.1804 33.8691C69.9477 35.1018 68.2759 35.7943 66.5326 35.7943ZM129.468 28.846C129.468 21.675 123.437 16.3718 116.553 16.3718C110.361 16.3718 104.848 21.5941 104.848 29.2189V49.5968H110.64V38.5944C112.57 40.487 114.573 41.3219 117.435 41.3219C123.903 41.3219 129.467 35.9164 129.467 28.846M123.984 28.7734C123.984 30.5167 123.291 32.1885 122.058 33.4212C120.826 34.6538 119.154 35.3463 117.411 35.3463C115.667 35.3463 113.996 34.6538 112.763 33.4212C111.53 32.1885 110.838 30.5167 110.838 28.7734C110.838 27.0302 111.53 25.3583 112.763 24.1257C113.996 22.893 115.667 22.2005 117.411 22.2005C119.154 22.2005 120.826 22.893 122.058 24.1257C123.291 25.3583 123.984 27.0302 123.984 28.7734Z" fill="#D9ECFF"/>
<path d="M148.182 16.0911V10.2715C148.952 9.91203 149.603 9.34157 150.06 8.62647C150.518 7.91138 150.763 7.08106 150.766 6.23217V6.09852C150.766 3.62347 148.76 1.61703 146.285 1.61703H146.151C144.963 1.61703 143.823 2.08919 142.982 2.92963C142.142 3.77007 141.67 4.90996 141.67 6.09852V6.23217C141.674 7.08106 141.919 7.91138 142.376 8.62647C142.834 9.34157 143.485 9.91203 144.254 10.2715V16.0911C142.043 16.4296 139.962 17.346 138.22 18.7477L122.259 6.31633C122.373 5.90547 122.432 5.48306 122.439 5.059C122.441 4.06024 122.146 3.08334 121.593 2.25187C121.04 1.42039 120.252 0.771688 119.33 0.387823C118.408 0.00395663 117.393 -0.0978304 116.413 0.0953365C115.433 0.288503 114.533 0.767946 113.825 1.47302C113.118 2.17809 112.635 3.07712 112.439 4.05638C112.243 5.03565 112.341 6.05115 112.722 6.97444C113.103 7.89774 113.749 8.68734 114.579 9.24338C115.408 9.79941 116.384 10.0969 117.383 10.0982C118.257 10.0941 119.114 9.86082 119.87 9.42169L135.586 21.6517C134.174 23.7847 133.438 26.2935 133.472 28.8512C133.507 31.4088 134.312 33.8967 135.781 35.9905L131.001 40.7723C130.614 40.6488 130.212 40.5831 129.806 40.5776C128.986 40.5783 128.185 40.8219 127.504 41.2778C126.822 41.7337 126.291 42.3813 125.978 43.1389C125.664 43.8964 125.583 44.7299 125.743 45.5339C125.903 46.338 126.298 47.0765 126.877 47.6562C127.457 48.2359 128.196 48.6308 129 48.7909C129.804 48.951 130.637 48.8691 131.395 48.5557C132.152 48.2423 132.8 47.7113 133.256 47.0299C133.712 46.3485 133.955 45.5473 133.956 44.7275C133.951 44.3218 133.885 43.9192 133.761 43.5328L138.49 38.8022C140.032 39.9894 141.826 40.8079 143.733 41.1949C145.64 41.582 147.611 41.5273 149.494 41.0352C151.377 40.543 153.122 39.6264 154.596 38.3555C156.07 37.0847 157.233 35.4933 157.997 33.7033C158.761 31.9134 159.105 29.9723 159.003 28.0288C158.901 26.0854 158.355 24.1911 157.408 22.491C156.46 20.791 155.136 19.3304 153.537 18.2211C151.938 17.1118 150.107 16.3832 148.182 16.0911ZM146.222 35.2315C145.348 35.2556 144.478 35.1042 143.664 34.7863C142.849 34.4685 142.107 33.9906 141.48 33.381C140.854 32.7713 140.355 32.0422 140.015 31.2368C139.675 30.4313 139.5 29.5659 139.5 28.6916C139.5 27.8173 139.675 26.9519 140.015 26.1464C140.355 25.341 140.854 24.6119 141.48 24.0023C142.107 23.3926 142.849 22.9147 143.664 22.5969C144.478 22.279 145.348 22.1277 146.222 22.1517C147.916 22.211 149.521 22.9254 150.699 24.1444C151.876 25.3634 152.535 26.9918 152.536 28.6868C152.537 30.3817 151.88 32.0108 150.703 33.231C149.527 34.4512 147.923 35.1672 146.229 35.2282" fill="#FF7A59"/>
</svg>
