<svg width="44" height="44" viewBox="0 0 44 44" fill="none" xmlns="http://www.w3.org/2000/svg">
<path fill-rule="evenodd" clip-rule="evenodd" d="M22 44C34.1503 44 44 34.1503 44 22C44 9.84974 34.1503 0 22 0C9.84974 0 0 9.84974 0 22C0 34.1503 9.84974 44 22 44Z" fill="#FF427A"/>
<g clip-path="url(#clip0_3152_89)">
<path d="M35.4056 26.6722C35.4056 26.6722 34.5255 28.6805 33.5099 29.041C32.4944 29.4015 31.6177 28.629 33.3012 24.8187C34.9851 21.008 34.038 17.7122 32.9858 16.6823C31.933 15.6524 29.0922 15.3434 27.5139 16.2705C25.935 17.1972 24.8779 18.5108 24.8779 18.5108L25.3856 15.7555L19.2007 15.8584L18.2536 19.2571H20.9893C20.9893 19.2571 18.4639 26.7392 18.2536 26.9118C18.0433 27.0843 16.2458 28.4281 15.4842 28.6805C14.7225 28.9334 13.8339 29.1442 14.2549 27.4964C14.6759 25.8486 17.2013 15.7555 17.2013 15.7555H10.2552L9.625 19.051V19.2571H12.1505C12.1505 19.2571 10.1526 27.0843 10.046 28.0111C9.9389 28.9384 10.1526 30.8544 13.1992 31.4098C16.2458 31.9656 18.4639 29.041 18.4639 29.041L18.0433 31.4098H22.042C22.042 31.4098 24.1162 23.3346 24.8779 21.5574C25.6395 19.7802 28.1784 18.2262 29.4478 19.2571C30.7172 20.288 30.1445 21.9348 29.6183 23.2736C29.0922 24.6124 27.9245 28.1584 28.94 29.9355C29.9555 31.7127 33.3012 32.4744 35.1953 30.2772C36.5565 28.6805 37.0643 27.1428 37.0643 27.1428L35.4056 26.6722Z" fill="white"/>
<path d="M15.2308 13.6871C16.3525 13.6871 17.2618 12.7778 17.2618 11.6561C17.2618 10.5343 16.3525 9.625 15.2308 9.625C14.109 9.625 13.1997 10.5343 13.1997 11.6561C13.1997 12.7778 14.109 13.6871 15.2308 13.6871Z" fill="white"/>
</g>
<defs>
<clipPath id="clip0_3152_89">
<rect width="27.4393" height="22" fill="white" transform="translate(9.625 9.625)"/>
</clipPath>
</defs>
</svg>
