<svg width="44" height="44" viewBox="0 0 44 44" fill="none" xmlns="http://www.w3.org/2000/svg">
<path fill-rule="evenodd" clip-rule="evenodd" d="M22 44C34.1503 44 44 34.1503 44 22C44 9.84974 34.1503 0 22 0C9.84974 0 0 9.84974 0 22C0 34.1503 9.84974 44 22 44Z" fill="#F5DE50"/>
<path d="M34.2788 24.6144C34.0188 23.0042 32.9619 21.6523 29.8317 20.3909C28.7445 19.8945 27.5322 19.5389 27.1709 18.7203C27.0426 18.244 27.0257 17.9756 27.1068 17.6871C27.3398 16.7512 28.4642 16.4593 29.3556 16.7277C29.9297 16.9189 30.4733 17.3584 30.8009 18.0595C32.3339 17.0732 32.3305 17.0799 33.4009 16.4023C33.0092 15.7985 32.7999 15.52 32.5432 15.2617C31.6214 14.2386 30.3653 13.7119 28.3561 13.7521C28.0083 13.7958 27.6572 13.8427 27.3094 13.8863C26.3065 14.1379 25.3509 14.6613 24.7904 15.3624C23.1088 17.2577 23.5883 20.5755 25.6345 21.9408C27.6504 23.4437 30.6118 23.7859 30.99 25.1915C31.358 26.9124 29.717 27.4692 28.086 27.2713C26.8839 27.0231 26.2154 26.4159 25.4927 25.3122C24.1623 26.0771 24.1623 26.0771 22.7948 26.8587C23.1189 27.5632 23.46 27.8819 24.0036 28.4924C26.5767 31.0856 33.016 30.9581 34.1708 27.0332C34.2181 26.8989 34.5287 25.9999 34.2788 24.6144ZM20.9747 13.9601H17.6521C17.6521 16.8115 17.6386 19.6429 17.6386 22.4943C17.6386 24.3092 17.7331 25.9731 17.436 26.483C16.9497 27.486 15.6902 27.3619 15.1162 27.1673C14.532 26.8821 14.2349 26.4762 13.8905 25.9026C13.7959 25.7382 13.725 25.6108 13.7013 25.6007C12.7998 26.1475 11.9016 26.6976 11 27.2445C11.4491 28.1603 12.1109 28.9553 12.9585 29.4719C14.2247 30.2267 15.9266 30.4582 17.7061 30.0523C18.8643 29.7168 19.8638 29.0224 20.3872 27.9657C21.1435 26.5803 20.9815 24.9029 20.9747 23.0478C20.9916 20.0219 20.9747 16.9961 20.9747 13.9601Z" fill="#323330"/>
</svg>
