<svg width="228" height="52" viewBox="0 0 228 52" fill="none" xmlns="http://www.w3.org/2000/svg">
<path d="M39.1728 8.78173C30.4541 8.15547 20.7426 8.15549 12.0238 8.78173C10.1986 8.91283 8.81576 10.3103 8.67854 12.0186C8.23844 17.4967 8.17989 25.7041 8.58344 31.1767C8.71673 32.9844 10.3038 34.536 12.4509 34.536H19.1816V42.839L12.4646 42.8342C6.30263 42.8342 0.771665 38.2669 0.293895 31.788C-0.141067 25.8896 -0.080991 17.2553 0.393174 11.3529C0.868376 5.43768 5.62498 0.907892 11.4283 0.491053C20.5436 -0.163683 30.6531 -0.163686 39.7684 0.491052C45.5717 0.907888 50.3284 5.43768 50.8036 11.3529C51.2777 17.2553 51.2569 25.8896 50.822 31.788C50.3442 38.2669 44.826 42.8528 38.6641 42.8528L32.0165 42.848L19.1816 51.151V42.839L32.0165 34.536H38.6651C40.8121 34.536 42.3991 32.9844 42.5324 31.1767C42.936 25.7041 42.9582 17.4967 42.5181 12.0186C42.3809 10.3103 40.9981 8.91283 39.1728 8.78173Z" fill="#FE5000"/>
<path d="M63.8732 36.4954H83.9603V31.4519H69.9602V6.06055H63.8732V36.4954Z" fill="#D9ECFF"/>
<path d="M86.8725 36.4957H92.7855V13.8869H86.8725V36.4957ZM86.3942 7.97385C86.3942 9.93038 87.829 11.4086 89.829 11.4086C91.829 11.4086 93.2638 9.93038 93.2638 7.97385C93.2638 6.01733 91.829 4.53906 89.829 4.53906C87.829 4.53906 86.3942 6.01733 86.3942 7.97385Z" fill="#D9ECFF"/>
<path d="M115.971 13.8867H110.058L105.188 30.4519L100.319 13.8867H94.4056L102.101 36.4954H108.275L115.971 13.8867Z" fill="#D9ECFF"/>
<path d="M126.522 37.017C131.522 37.017 135.566 34.017 136.348 29.8866H131.174C130.609 31.4518 129.044 32.7561 126.522 32.7561C123.087 32.7561 121.739 30.4518 121.739 27.7996V27.2344H136.522V23.2779C136.522 17.8431 133.131 13.3647 126.435 13.3647C119.652 13.3647 116 17.7126 116 23.8431V26.93C116 33.2779 120.131 37.017 126.522 37.017ZM121.739 22.8431C121.739 19.7996 123.044 17.5387 126.435 17.5387C129.609 17.5387 131.087 19.6691 131.087 22.4952V23.0605H121.739V22.8431Z" fill="#D9ECFF"/>
<path d="M152.238 37.1042C159.933 37.1042 164.672 31.8867 164.977 25.6693H159.325C158.933 29.1041 156.759 32.1041 152.238 32.1041C147.151 32.1041 144.977 28.6259 144.977 23.7563V18.7998C144.977 13.9302 147.151 10.4519 152.238 10.4519C156.759 10.4519 158.933 13.4519 159.325 16.8867H164.977C164.672 10.6693 159.933 5.4519 152.238 5.4519C143.064 5.4519 138.933 11.3215 138.933 19.1041V23.4519C138.933 31.2346 143.064 37.1042 152.238 37.1042Z" fill="#D9ECFF"/>
<path d="M168.19 36.4954H174.104V23.1041C174.104 20.0606 175.799 18.4954 178.452 18.4954C181.321 18.4954 182.581 20.3649 182.581 22.9736V36.4954H188.494V22.0171C188.494 16.6692 185.408 13.3648 180.494 13.3648C177.582 13.3648 175.277 14.6257 174.104 16.5822V4.7561H168.19V36.4954Z" fill="#D9ECFF"/>
<path d="M199.782 37.017C202.391 37.017 205.26 35.9301 206.304 34.4083V36.4953H211.999V22.0605C211.999 16.7995 208.13 13.3647 202.478 13.3647C197.608 13.3647 194.086 15.7126 192.781 20.1039H198.26C198.868 18.8865 200.13 17.9735 202.173 17.9735C204.607 17.9735 206.086 19.5387 206.086 21.6257V24.7126C205.042 23.8431 203.042 22.7996 200.347 22.7996C194.913 22.7996 191.216 25.0605 191.216 29.9735C191.216 34.3648 194.694 37.017 199.782 37.017ZM201.303 33.104C198.826 33.104 196.955 31.8866 196.955 29.7996C196.955 27.7126 198.694 26.5822 201.477 26.5822C204.13 26.5822 206.086 27.7561 206.086 29.7561C206.086 31.6692 203.912 33.104 201.303 33.104Z" fill="#D9ECFF"/>
<path d="M223.049 36.4953H227.136V31.7126H224.744C223.179 31.7126 222.614 31.104 222.614 29.6257V18.6691H227.44V13.8866H222.614V7.71265H216.657V13.8866H213.439V18.6691H216.657V30.0605C216.657 34.0605 218.701 36.4953 223.049 36.4953Z" fill="#D9ECFF"/>
</svg>
