<svg width="170" height="52" viewBox="0 0 170 52" fill="none" xmlns="http://www.w3.org/2000/svg">
<path d="M51.1681 22.8986H35.5807L49.0794 15.1066L46.4025 10.4689L32.9021 18.2609L40.6941 4.76557L36.0564 2.08867L28.2627 15.5806V0H22.9054V15.5823L15.1117 2.08867L10.4723 4.76557L18.2643 18.2575L4.76728 10.4689L2.08867 15.1066L15.5874 22.8986H0V28.2541H15.5857L2.08867 36.0461L4.76557 40.6838L18.266 32.8918L10.4723 46.3872L15.11 49.0641L22.9054 35.5704V51.151H28.2627V35.2363L36.1996 48.9788L40.5491 46.469L32.6105 32.723L46.3991 40.6821L49.0777 36.0444L35.5807 28.2524H51.1664V22.8986H51.1681ZM25.584 32.856C24.6277 32.8562 23.6807 32.668 22.7972 32.3021C21.9136 31.9362 21.1107 31.3999 20.4345 30.7237C19.7583 30.0477 19.2217 29.2449 18.8556 28.3614C18.4896 27.4778 18.3012 26.531 18.301 25.5747C18.3008 24.6183 18.4891 23.6713 18.855 22.7878C19.2209 21.9042 19.7571 21.1013 20.4333 20.4251C21.1094 19.7489 21.9121 19.2123 22.7956 18.8463C23.6792 18.4802 24.626 18.2918 25.5823 18.2916C27.5136 18.2914 29.366 19.0584 30.7319 20.4239C32.0978 21.7895 32.8652 23.6417 32.8654 25.573C32.8656 27.5043 32.0986 29.3566 30.7331 30.7225C29.3675 32.0884 27.5153 32.8559 25.584 32.856Z" fill="#5753F3"/>
<path d="M64.9769 44.2852V6.86646H71.8448V44.2852H64.9769ZM130.848 18.8563H137.405V21.9594C138.8 19.4786 142.055 18.1333 144.842 18.1333C148.304 18.1333 151.091 19.6338 152.382 22.3703C154.394 19.2672 157.081 18.1333 160.438 18.1333C165.137 18.1333 169.629 20.9756 169.629 27.7975V44.2852H162.969V29.1939C162.969 26.4539 161.625 24.3857 158.474 24.3857C155.53 24.3857 153.773 26.6619 153.773 29.4019V44.2869H146.96V29.1939C146.96 26.4539 145.565 24.3857 142.466 24.3857C139.47 24.3857 137.714 26.6108 137.714 29.4019V44.2869H130.848V18.8563ZM87.3657 45.0217C79.6283 45.0217 74.0255 39.2809 74.0255 31.5707C74.0255 23.9833 79.6112 18.1078 87.3657 18.1078C95.1577 18.1078 100.706 24.0379 100.706 31.5707C100.706 39.2263 95.0997 45.0217 87.3657 45.0217ZM87.3657 24.3311C85.4465 24.3339 83.6068 25.0977 82.2501 26.4554C80.8936 27.813 80.1309 29.6532 80.1295 31.5724C80.1309 33.4916 80.8936 35.3318 82.2501 36.6894C83.6068 38.0471 85.4465 38.811 87.3657 38.8137C89.2846 38.8105 91.1239 38.0464 92.4801 36.6889C93.8363 35.3313 94.5988 33.4913 94.6002 31.5724C94.5988 29.6536 93.8363 27.8135 92.4801 26.4559C91.1239 25.0984 89.2846 24.3344 87.3657 24.3311ZM115.374 45.0217C107.637 45.0217 102.034 39.2809 102.034 31.5707C102.034 23.9833 107.62 18.1078 115.374 18.1078C123.166 18.1078 128.715 24.0379 128.715 31.5707C128.715 39.2263 123.105 45.0217 115.374 45.0217ZM115.374 24.2442C113.433 24.2474 111.572 25.0203 110.2 26.3934C108.828 27.7664 108.056 29.6278 108.055 31.569C108.056 33.5102 108.828 35.3716 110.2 36.7446C111.572 38.1177 113.433 38.8906 115.374 38.8938C117.316 38.8906 119.176 38.1177 120.548 36.7446C121.921 35.3716 122.692 33.5102 122.694 31.569C122.692 29.6278 121.921 27.7664 120.548 26.3934C119.176 25.0203 117.316 24.2474 115.374 24.2442Z" fill="#D9ECFF"/>
</svg>
