<svg width="178" height="51" viewBox="0 0 178 51" fill="none" xmlns="http://www.w3.org/2000/svg">
<path fill-rule="evenodd" clip-rule="evenodd" d="M177.842 13.5915H170.002L164.507 27.7593L159.04 13.5915H151.2L160.732 35.9792L154.803 50.7807H162.586L177.842 13.5915ZM130.162 26.0438C130.162 29.6206 133.288 31.9741 136.359 31.9741C139.377 31.9741 142.342 29.7839 142.342 26.0416C142.342 22.2993 139.377 20.1069 136.359 20.1069C133.288 20.1069 130.162 22.4627 130.162 26.0416V26.0438ZM142.342 38.5447V35.7121C140.753 38.1186 137.043 39.0282 135.14 39.0282C128.839 39.0282 122.536 34.0606 122.536 26.0416C122.536 18.0249 128.837 13.0573 135.14 13.0573C136.728 13.0573 140.437 13.5871 142.342 16.3691V13.6004H149.65V38.5492L142.342 38.5469V38.5447ZM120.456 38.5447H113.148V35.4449C111.927 37.7411 108.966 39.079 105.893 39.079C99.5361 39.079 93.9216 34.0032 93.9216 26.1432C93.9216 18.1353 99.5361 13.0528 105.893 13.0528C108.962 13.0528 111.931 14.3334 113.148 16.6317V0H120.456V38.5447ZM112.989 25.9864C112.989 22.2464 110.288 20.0539 107.27 20.0539C104.144 20.0539 101.548 22.4053 101.548 25.9864C101.548 29.6824 104.144 32.0227 107.268 32.0227C110.344 32.0271 112.989 29.5676 112.989 25.9864ZM75.8526 25.3418C75.8526 21.5487 77.8134 20.2659 80.4074 20.2659C82.8956 20.2659 84.6974 21.9218 84.6974 25.2336V38.5403H92.0582V23.6329C92.0582 16.528 88.5609 13.0528 82.9996 13.0528C80.0871 13.0528 77.1753 14.7087 75.8502 17.2213V13.5915H68.4936V38.5403H75.8526V25.3418ZM53.5468 38.9687C46.5564 38.9687 40.7255 33.8398 40.7255 25.9842C40.7255 18.1243 46.5498 13.0462 53.5468 13.0462C60.5431 13.0462 66.4188 18.1243 66.4188 25.9842C66.4188 33.8442 60.5366 38.9709 53.5468 38.9709V38.9687ZM53.5468 31.7048C56.6157 31.7048 59.1613 29.4572 59.1613 25.9864C59.1613 22.6195 56.6181 20.3211 53.5468 20.3211C52.8072 20.3095 52.0729 20.4486 51.3889 20.7299C50.7048 21.0111 50.0853 21.4287 49.568 21.9571C49.0476 22.4884 48.6396 23.1188 48.3671 23.811C48.0953 24.5032 47.9657 25.243 47.9854 25.9864C47.9872 29.4616 50.5286 31.7048 53.5468 31.7048ZM27.5291 20.2681C29.6996 20.2681 31.6071 21.9792 31.6071 25.2358V38.5447H38.9154V24.3747C38.9154 16.8415 35.2526 13.0484 29.3817 13.0484C27.6373 13.0484 24.3521 13.5783 21.9678 17.4818C20.5901 14.5962 17.9429 13.0992 14.0304 13.0992C12.6719 13.0923 11.3409 13.4767 10.195 14.2065C9.04916 14.9364 8.13809 15.9807 7.57054 17.2146V13.5937H0.204895V38.5425H7.56397V25.3418C7.56397 21.5487 9.63045 20.2659 11.8534 20.2659C13.9731 20.2659 15.8765 21.9218 15.9314 25.0746V38.5425H23.2922V25.3418C23.2922 21.7142 25.1998 20.2703 27.5291 20.2703V20.2681Z" fill="#D9ECFF"/>
</svg>
