<svg width="82" height="136" viewBox="0 0 82 136" fill="none" xmlns="http://www.w3.org/2000/svg">
<g clip-path="url(#clip0_5_1317)">
<path d="M41 135.142C18.8258 135.142 0.854156 117.096 0.854156 94.8292V-33.8293C0.854156 -56.0958 18.8258 -74.1423 41 -74.1423C63.1742 -74.1423 81.1458 -56.0958 81.1458 -33.8293V94.8292C81.1458 117.096 63.1742 135.142 41 135.142Z" stroke="white" stroke-opacity="0.3" stroke-width="3" stroke-miterlimit="10"/>
<path d="M41 100.833C37.7029 100.833 35.0208 98.1402 35.0208 94.8293V-33.8292C35.0208 -37.14 37.7029 -39.8333 41 -39.8333C44.2971 -39.8333 46.9792 -37.14 46.9792 -33.8292V94.8293C46.9792 98.1402 44.2971 100.833 41 100.833Z" fill="#FF5156"/>
</g>
<defs>
<clipPath id="clip0_5_1317">
<rect width="82" height="211" fill="white" transform="translate(0 -75)"/>
</clipPath>
</defs>
</svg>
