<svg width="44" height="44" viewBox="0 0 44 44" fill="none" xmlns="http://www.w3.org/2000/svg">
<path fill-rule="evenodd" clip-rule="evenodd" d="M22 44C34.1503 44 44 34.1503 44 22C44 9.84974 34.1503 0 22 0C9.84974 0 0 9.84974 0 22C0 34.1503 9.84974 44 22 44Z" fill="#18204D"/>
<path d="M34.375 22.023C34.375 20.3834 32.3217 18.8296 29.1738 17.866C29.9002 14.6575 29.5774 12.1048 28.1547 11.2876C27.8268 11.0959 27.4434 11.005 27.0247 11.005V12.13C27.2567 12.13 27.4434 12.1754 27.5998 12.2612C28.2859 12.6547 28.5835 14.153 28.3515 16.0802C28.296 16.5544 28.2052 17.0538 28.0942 17.5633C27.1054 17.3212 26.0258 17.1345 24.8907 17.0135C24.2096 16.0802 23.5034 15.2326 22.792 14.491C24.4367 12.9624 25.9804 12.125 27.0297 12.125V11C25.6424 11 23.8262 11.9888 21.9899 13.704C20.1536 11.9989 18.3374 11.0202 16.9501 11.0202V12.1452C17.9944 12.1452 19.5432 12.9776 21.1878 14.4961C20.4815 15.2377 19.7752 16.0802 19.1043 17.0135C17.9641 17.1345 16.8845 17.3212 15.8957 17.5684C15.7797 17.0639 15.6939 16.5746 15.6334 16.1054C15.3963 14.1783 15.6889 12.6799 16.37 12.2814C16.5213 12.1906 16.718 12.1502 16.9501 12.1502V11.0252C16.5263 11.0252 16.1429 11.116 15.81 11.3077C14.3924 12.125 14.0746 14.6726 14.8061 17.8711C11.6682 18.8397 9.625 20.3885 9.625 22.023C9.625 23.6626 11.6783 25.2164 14.8262 26.1799C14.0998 29.3885 14.4226 31.9411 15.8453 32.7584C16.1732 32.9501 16.5566 33.0409 16.9804 33.0409C18.3677 33.0409 20.1839 32.0521 22.0202 30.3369C23.8565 32.042 25.6726 33.0207 27.06 33.0207C27.4837 33.0207 27.8672 32.9299 28.2001 32.7382C29.6177 31.921 29.9355 29.3733 29.204 26.1749C32.3318 25.2113 34.375 23.6575 34.375 22.023ZM27.8066 18.6581C27.62 19.3089 27.3879 19.9798 27.1256 20.6508C26.9187 20.2472 26.7018 19.8436 26.4647 19.44C26.2326 19.0364 25.9854 18.6429 25.7382 18.2595C26.4546 18.3655 27.1457 18.4966 27.8066 18.6581ZM25.4961 24.0308C25.1026 24.7119 24.699 25.3576 24.2803 25.958C23.5286 26.0235 22.7668 26.0589 22 26.0589C21.2382 26.0589 20.4765 26.0235 19.7298 25.963C19.3111 25.3627 18.9025 24.722 18.509 24.046C18.1256 23.3851 17.7775 22.7141 17.4596 22.0381C17.7724 21.3621 18.1256 20.6861 18.5039 20.0252C18.8974 19.3442 19.301 18.6984 19.7197 18.0981C20.4714 18.0325 21.2332 17.9972 22 17.9972C22.7618 17.9972 23.5235 18.0325 24.2702 18.093C24.6889 18.6934 25.0975 19.3341 25.491 20.0101C25.8744 20.671 26.2225 21.3419 26.5404 22.0179C26.2225 22.6939 25.8744 23.37 25.4961 24.0308ZM27.1256 23.375C27.398 24.051 27.63 24.727 27.8218 25.3828C27.1609 25.5443 26.4647 25.6805 25.7433 25.7864C25.9905 25.398 26.2377 24.9994 26.4697 24.5908C26.7018 24.1872 26.9187 23.7786 27.1256 23.375ZM22.0101 28.7578C21.5409 28.2735 21.0717 27.7337 20.6076 27.1435C21.0617 27.1637 21.5258 27.1788 21.995 27.1788C22.4692 27.1788 22.9383 27.1687 23.3974 27.1435C22.9434 27.7337 22.4742 28.2735 22.0101 28.7578ZM18.2567 25.7864C17.5404 25.6805 16.8492 25.5493 16.1883 25.3879C16.375 24.7371 16.6071 24.0661 16.8694 23.3952C17.0762 23.7988 17.2932 24.2024 17.5303 24.6059C17.7674 25.0095 18.0095 25.403 18.2567 25.7864ZM21.9849 15.2881C22.454 15.7724 22.9232 16.3122 23.3873 16.9025C22.9333 16.8823 22.4692 16.8672 22 16.8672C21.5258 16.8672 21.0566 16.8772 20.5975 16.9025C21.0516 16.3122 21.5207 15.7724 21.9849 15.2881ZM18.2517 18.2595C18.0045 18.648 17.7573 19.0465 17.5252 19.4552C17.2932 19.8587 17.0762 20.2623 16.8694 20.6659C16.597 19.9899 16.3649 19.3139 16.1732 18.6581C16.8341 18.5017 17.5303 18.3655 18.2517 18.2595ZM13.6861 24.5757C11.9002 23.8139 10.745 22.815 10.745 22.023C10.745 21.2309 11.9002 20.227 13.6861 19.4703C14.12 19.2836 14.5942 19.1172 15.0835 18.9608C15.3711 19.9496 15.7494 20.9787 16.2186 22.0331C15.7545 23.0824 15.3812 24.1065 15.0987 25.0902C14.5992 24.9339 14.125 24.7623 13.6861 24.5757ZM16.4002 31.7848C15.7141 31.3913 15.4165 29.8929 15.6485 27.9658C15.704 27.4916 15.7948 26.9922 15.9058 26.4826C16.8946 26.7248 17.9742 26.9114 19.1093 27.0325C19.7904 27.9658 20.4966 28.8133 21.208 29.5549C19.5633 31.0835 18.0196 31.921 16.9703 31.921C16.7433 31.9159 16.5516 31.8705 16.4002 31.7848ZM28.3666 27.9406C28.6037 29.8677 28.3111 31.366 27.63 31.7646C27.4787 31.8554 27.2819 31.8957 27.0499 31.8957C26.0056 31.8957 24.4568 31.0633 22.8122 29.5448C23.5185 28.8033 24.2248 27.9608 24.8957 27.0275C26.0359 26.9064 27.1155 26.7197 28.1043 26.4725C28.2203 26.9821 28.3111 27.4714 28.3666 27.9406ZM30.3089 24.5757C29.875 24.7623 29.4008 24.9288 28.9114 25.0852C28.6239 24.0964 28.2455 23.0673 27.7763 22.0129C28.2405 20.9636 28.6138 19.9395 28.8963 18.9557C29.3957 19.1121 29.87 19.2836 30.3139 19.4703C32.0998 20.2321 33.255 21.2309 33.255 22.023C33.25 22.815 32.0947 23.8189 30.3089 24.5757Z" fill="#61DAFB"/>
<path d="M21.9949 24.3285C23.2682 24.3285 24.3004 23.2963 24.3004 22.023C24.3004 20.7497 23.2682 19.7175 21.9949 19.7175C20.7217 19.7175 19.6895 20.7497 19.6895 22.023C19.6895 23.2963 20.7217 24.3285 21.9949 24.3285Z" fill="#61DAFB"/>
</svg>
