<svg width="74" height="74" viewBox="0 0 74 74" fill="none" xmlns="http://www.w3.org/2000/svg">
<path d="M27.4318 1.18078L40.3308 11.3592C41.0155 11.9041 41.8225 12.2742 42.6822 12.4377C43.5418 12.6011 44.4283 12.5529 45.2652 12.2973L60.9597 7.44732C61.9221 7.14775 62.9492 7.12382 63.9245 7.37824C64.8998 7.63266 65.7843 8.15524 66.4777 8.88674C67.1711 9.61825 67.6457 10.5294 67.8477 11.5169C68.0496 12.5044 67.9708 13.5287 67.6203 14.4737L61.9166 29.8774C61.6123 30.698 61.5122 31.5802 61.625 32.4481C61.7378 33.3159 62.06 34.1432 62.5639 34.8588L72.0294 48.2924C72.6098 49.1152 72.9484 50.0839 73.0068 51.0891C73.0651 52.0943 72.841 53.0957 72.3598 53.9802C71.8785 54.8646 71.1593 55.5966 70.2836 56.0935C69.4079 56.5904 68.4106 56.8322 67.4045 56.7917L50.9877 56.135C50.1125 56.099 49.2418 56.2766 48.4507 56.6526C47.6597 57.0285 46.972 57.5914 46.4472 58.2926L36.5971 71.4261C35.9921 72.2243 35.1767 72.8383 34.2424 73.1993C33.3081 73.5602 32.2918 73.6539 31.3072 73.4699C30.3227 73.2858 29.4088 72.8313 28.668 72.1572C27.9272 71.4831 27.3887 70.616 27.1129 69.6531L22.6381 53.7991C22.3997 52.9575 21.9612 52.186 21.3601 51.5506C20.759 50.9151 20.013 50.4346 19.1859 50.1499L3.66026 44.8871C2.70632 44.5633 1.86213 43.9788 1.2233 43.1999C0.584469 42.4209 0.176529 41.4787 0.0456909 40.4798C-0.0851473 39.481 0.0663441 38.4654 0.483005 37.5482C0.899666 36.631 1.56484 35.8489 2.4032 35.2903L16.0714 26.1719C16.8003 25.6879 17.4001 25.0333 17.8186 24.265C18.2371 23.4966 18.4617 22.6377 18.4729 21.7628L18.6699 5.33658C18.6807 4.32563 18.9754 3.33807 19.5204 2.48651C20.0653 1.63495 20.8387 0.953695 21.7521 0.520433C22.6656 0.0871719 23.6824 -0.0806646 24.6867 0.0360929C25.6909 0.15285 26.6421 0.549504 27.4318 1.18078Z" fill="#FFD550"/>
</svg>
