<svg width="1176" height="907" viewBox="0 0 1176 907" fill="none" xmlns="http://www.w3.org/2000/svg">
<path d="M93.3725 212.868H286.137C286.137 212.868 285.206 205.233 263.788 199.122C242.371 193.01 227.002 208.667 202.793 199.122C178.583 189.576 165.741 175.88 134.543 183.517C103.346 191.154 93.3725 212.868 93.3725 212.868Z" fill="#2C3681" stroke="#5AA3FF" stroke-width="0.785" stroke-linecap="round" stroke-linejoin="round"/>
<path opacity="0.25" d="M69.4236 304.3H209.639C209.639 304.3 208.962 297.545 193.383 292.137C177.804 286.729 166.626 300.585 149.015 292.137C131.404 283.689 122.062 271.576 99.3685 278.338C92.7902 280.245 86.7055 283.554 81.5352 288.036C76.365 292.519 72.2325 298.068 69.4236 304.3Z" fill="#2C3681" stroke="#5AA3FF"/>
<path opacity="0.25" d="M303.677 196.662H443.893C443.893 196.662 443.216 189.907 427.637 184.499C412.058 179.091 400.88 192.947 383.269 184.499C365.657 176.05 356.316 163.937 333.622 170.7C327.044 172.607 320.959 175.915 315.789 180.398C310.619 184.881 306.486 190.43 303.677 196.662Z" fill="#2C3681" stroke="#5AA3FF"/>
<path d="M1040.52 261.321H963.976V305.65H1040.52V261.321Z" fill="#FEE6CE"/>
<path d="M963.976 271.429H1040.52" stroke="#EDC59F" stroke-miterlimit="10"/>
<path d="M963.976 280.092H1040.52" stroke="#EDC59F" stroke-miterlimit="10"/>
<path d="M963.976 288.756H1040.52" stroke="#EDC59F" stroke-miterlimit="10"/>
<path d="M963.976 297.419H1040.52" stroke="#EDC59F" stroke-miterlimit="10"/>
<path d="M1116.77 256.806H963.852C961.617 256.806 959.806 258.084 959.806 259.659V262.92C959.806 263.445 960.414 263.878 961.165 263.878H1026.7C1033.28 263.878 1038.62 267.643 1038.62 272.279V296.251C1038.62 300.895 1033.28 304.652 1026.7 304.652H961.165C960.414 304.652 959.806 305.083 959.806 305.61V308.871C959.806 310.446 961.617 311.725 963.852 311.725H1116.77C1124.8 311.725 1131.3 307.136 1131.3 301.486V267.055C1131.3 261.395 1124.8 256.806 1116.77 256.806Z" fill="#6285D9"/>
<path d="M1073.49 250.801H1150.03V206.473H1073.49V250.801Z" fill="#FEE6CE"/>
<path d="M1150.03 216.58H1073.49" stroke="#EDC59F" stroke-miterlimit="10"/>
<path d="M1150.03 225.244H1073.49" stroke="#EDC59F" stroke-miterlimit="10"/>
<path d="M1150.03 233.907H1073.49" stroke="#EDC59F" stroke-miterlimit="10"/>
<path d="M1150.03 242.571H1073.49" stroke="#EDC59F" stroke-miterlimit="10"/>
<path d="M997.232 201.957H1150.15C1152.39 201.957 1154.2 203.236 1154.2 204.811V208.069C1154.2 208.594 1153.59 209.027 1152.84 209.027H1087.3C1080.72 209.027 1075.39 212.792 1075.39 217.428V241.4C1075.39 246.042 1080.72 249.801 1087.3 249.801H1152.84C1153.59 249.801 1154.2 250.232 1154.2 250.759V254.02C1154.2 255.595 1152.39 256.874 1150.15 256.874H997.232C989.209 256.874 982.705 252.285 982.705 246.635V212.207C982.708 206.546 989.209 201.957 997.232 201.957Z" fill="#7EACBF"/>
<path d="M945.322 161.073L1021.39 140.115L1051.45 89.5203L1068.46 196.171L962.244 220.062L945.322 161.073Z" fill="#1D2563"/>
<path d="M995.25 27.7463L1049.05 121.47L958.214 181.354L921.436 132.179L985.114 85.695L995.25 27.7543" fill="#1D2563"/>
<path d="M785.258 318.742L998.603 249.019L969.19 158.096L785.258 318.742Z" fill="#7EACBF"/>
<g filter="url(#filter0_d_3085_114)">
<path d="M357.745 625.414C401.135 655.329 512.492 712.28 589.756 600.678C667.021 489.075 733.925 376.318 733.925 376.318L998.6 204.026L929.39 97.0259C929.39 97.0259 699.898 242.28 671.058 262.421C642.219 282.563 630.109 297.6 605.309 326.605C580.51 355.609 357.745 625.414 357.745 625.414Z" fill="#EDEEEF"/>
</g>
<path d="M967.034 155.227C967.034 155.227 741.992 303.988 717.196 321.168C692.399 338.348 676.246 346.912 656.637 375.995C637.028 405.078 565.526 525.788 546.196 556.326C526.866 586.863 478.42 626.558 423.628 592.615" stroke="black" stroke-miterlimit="10"/>
<g filter="url(#filter1_d_3085_114)">
<path d="M436.165 529.602C420.794 425.115 370.029 338.479 333.391 334.231C234.601 346.975 192.112 563.018 301.135 653.636C305.795 657.208 310.812 660.292 316.106 662.837C283.731 625.928 310.415 584.624 345.672 553.787L350.696 579.515L436.165 529.602Z" fill="#2C3681"/>
</g>
<path d="M369.213 535.426L346.275 422.28" stroke="black" stroke-miterlimit="10"/>
<path d="M341.653 303.581C333.991 318.915 328.563 328.842 323.984 337.938C317.801 350.22 341.508 360.532 346.411 345.449C350.681 332.323 358.422 311.583 358.422 311.583L341.653 303.581Z" fill="#F5ACA5"/>
<path d="M355.016 320.832C353.615 324.688 351.936 329.346 350.312 333.985L346.056 319.414C346.315 319.613 346.606 319.768 346.917 319.871C349.526 320.724 352.279 321.051 355.016 320.832Z" fill="#964C4B"/>
<path d="M353.676 281.87C328.758 278.782 320.665 255.451 328.076 243.902C335.488 232.353 348.812 233.18 357.169 242.096C365.526 251.012 364.889 270.084 353.676 281.87Z" fill="#7283FF"/>
<path d="M354.879 297.997C353.942 290.937 344.487 294.382 348.63 302.234C346.118 303.869 343.324 305.027 340.389 305.647V305.694C342.192 318.658 346.909 319.871 346.909 319.871C364.773 325.481 375.317 306.965 376.754 295.839C368.129 299.275 358.293 299.575 354.879 297.997Z" fill="#F5ACA5"/>
<path d="M354.881 297.997C358.303 299.572 368.123 299.278 376.762 295.836C376.914 294.735 376.964 293.622 376.909 292.512C376.219 281.3 364.454 276.403 354.96 278.483C344.358 280.803 338.607 292.709 340.392 305.655C343.327 305.034 346.121 303.877 348.633 302.242C344.49 294.382 353.942 290.937 354.881 297.997Z" fill="#7283FF"/>
<path d="M551.636 335.547L499.037 408.058L547.872 456.889L593.352 383.963L551.636 335.547Z" fill="#FEE6CE"/>
<path d="M601.059 388.032C601.059 388.778 555.932 462.387 555.932 462.387L478.396 448.472L527.761 378.844L601.059 388.032Z" fill="#E66F82"/>
<path d="M578.223 426.265C572.072 434.847 566.847 440.63 560.475 439.336C557.395 438.711 562.912 433.361 566.615 429.546C575.564 420.334 569.7 422.308 559.996 427.556C515.44 451.659 429.043 492.239 369.213 535.42C324.707 566.575 275.248 620.15 311.484 659.157C324.489 673.153 358.74 667.676 392.723 648.251C456.171 611.985 530.724 533.787 577.336 452.347C583.266 442.693 587.37 432.035 589.443 420.904C590.933 410.455 586.988 414.044 578.223 426.265Z" fill="#F5ACA5"/>
<path d="M527.761 378.831L530.511 375.562L593.352 383.963L551.636 335.536L556.482 334.347L601.058 388.022L527.761 378.831Z" fill="#CC6273"/>
<path d="M1002.35 352.464H1141.14C1143.33 352.503 1145.5 352.107 1147.53 351.3C1149.57 350.492 1151.42 349.288 1152.98 347.76C1154.54 346.231 1155.78 344.408 1156.62 342.396C1157.47 340.384 1157.9 338.224 1157.9 336.043C1157.9 333.861 1157.47 331.702 1156.62 329.69C1155.78 327.678 1154.54 325.855 1152.98 324.326C1151.42 322.797 1149.57 321.594 1147.53 320.786C1145.5 319.979 1143.33 319.583 1141.14 319.622H1002.35V352.464Z" fill="#FEE6CE"/>
<path d="M1002.35 343.958H1157.94" stroke="#EDC59F" stroke-miterlimit="10"/>
<path d="M1002.35 335.835H1157.94" stroke="#EDC59F" stroke-miterlimit="10"/>
<path d="M1002.35 327.71H1157.94" stroke="#EDC59F" stroke-miterlimit="10"/>
<path d="M1006.48 319.622H1141.14C1143.33 319.583 1145.5 319.978 1147.53 320.786C1149.57 321.594 1151.42 322.797 1152.98 324.326C1154.54 325.855 1155.78 327.678 1156.62 329.69C1157.47 331.702 1157.9 333.861 1157.9 336.043C1157.9 338.224 1157.47 340.384 1156.62 342.396C1155.78 344.408 1154.54 346.231 1152.98 347.76C1151.42 349.288 1149.57 350.492 1147.53 351.3C1145.5 352.107 1143.33 352.503 1141.14 352.464H994.286V360.34H1141.14C1144.38 360.407 1147.61 359.829 1150.62 358.637C1153.64 357.446 1156.38 355.667 1158.7 353.404C1161.02 351.14 1162.86 348.438 1164.12 345.456C1165.37 342.474 1166.02 339.272 1166.02 336.038C1166.02 332.803 1165.37 329.601 1164.12 326.619C1162.86 323.637 1161.02 320.935 1158.7 318.672C1156.38 316.408 1153.64 314.629 1150.62 313.438C1147.61 312.247 1144.38 311.668 1141.14 311.735H994.286V319.611H1006.48V319.622Z" fill="#E66F82"/>
<path d="M1126.61 527.235H977.818C975.491 527.37 973.161 527.029 970.971 526.234C968.781 525.439 966.777 524.206 965.082 522.611C963.387 521.016 962.036 519.092 961.113 516.958C960.19 514.823 959.714 512.523 959.714 510.199C959.714 507.874 960.19 505.574 961.113 503.44C962.036 501.305 963.387 499.381 965.082 497.786C966.777 496.191 968.781 494.958 970.971 494.163C973.161 493.368 975.491 493.028 977.818 493.163H1126.61V527.235Z" fill="#FEE6CE"/>
<path d="M1126.61 518.411H959.806" stroke="#EDC59F" stroke-miterlimit="10"/>
<path d="M1126.61 509.984H959.806" stroke="#EDC59F" stroke-miterlimit="10"/>
<path d="M1126.61 501.554H959.806" stroke="#EDC59F" stroke-miterlimit="10"/>
<path d="M1122.18 493.163H977.815C975.488 493.028 973.159 493.368 970.969 494.163C968.779 494.958 966.775 496.191 965.08 497.787C963.384 499.382 962.034 501.306 961.111 503.44C960.188 505.575 959.712 507.874 959.712 510.199C959.712 512.523 960.188 514.824 961.111 516.958C962.034 519.092 963.384 521.016 965.08 522.611C966.775 524.207 968.779 525.439 970.969 526.234C973.159 527.029 975.488 527.37 977.815 527.235H1135.25V535.412H977.815C974.385 535.591 970.954 535.071 967.732 533.884C964.51 532.697 961.563 530.869 959.072 528.51C956.581 526.151 954.597 523.311 953.241 520.163C951.886 517.015 951.187 513.625 951.187 510.199C951.187 506.773 951.886 503.383 953.241 500.235C954.597 497.087 956.581 494.247 959.072 491.888C961.563 489.529 964.51 487.701 967.732 486.514C970.954 485.328 974.385 484.807 977.815 484.985H1135.25V493.163H1122.18Z" fill="#D6DBFF"/>
<path d="M1157.36 476.201H1008.54C1003.73 476.12 999.146 474.156 995.772 470.733C992.398 467.311 990.507 462.703 990.507 457.903C990.507 453.103 992.398 448.495 995.772 445.072C999.146 441.649 1003.73 439.685 1008.54 439.604H1157.36V476.201Z" fill="#FEE6CE"/>
<path d="M1157.36 466.726H990.533" stroke="#EDC59F" stroke-miterlimit="10"/>
<path d="M1157.36 457.671H990.533" stroke="#EDC59F" stroke-miterlimit="10"/>
<path d="M1157.36 448.619H990.533" stroke="#EDC59F" stroke-miterlimit="10"/>
<path d="M1152.93 439.604H1008.54C1003.73 439.685 999.145 441.649 995.772 445.072C992.398 448.494 990.507 453.102 990.507 457.902C990.507 462.703 992.398 467.31 995.772 470.733C999.145 474.156 1003.73 476.12 1008.54 476.201H1166V484.985H1008.54C1001.42 484.864 994.636 481.958 989.643 476.892C984.65 471.827 981.852 465.007 981.852 457.904C981.852 450.8 984.65 443.981 989.643 438.916C994.636 433.85 1001.42 430.943 1008.54 430.822H1166V439.607H1152.93L1152.93 439.604Z" fill="#7EACBF"/>
<path d="M1032.21 540.411H947.441V589.502H1032.21V540.411Z" fill="#FEE6CE"/>
<path d="M947.441 551.603H1032.21" stroke="#EDC59F" stroke-miterlimit="10"/>
<path d="M947.441 561.198H1032.21" stroke="#EDC59F" stroke-miterlimit="10"/>
<path d="M947.441 570.791H1032.21" stroke="#EDC59F" stroke-miterlimit="10"/>
<path d="M947.441 580.387H1032.21" stroke="#EDC59F" stroke-miterlimit="10"/>
<path d="M1116.66 535.41H947.296C944.822 535.41 942.821 536.825 942.821 538.56V542.17C942.821 542.755 943.495 543.22 944.327 543.22H1016.91C1024.2 543.22 1030.11 547.389 1030.11 552.53V579.077C1030.11 584.217 1024.2 588.386 1016.91 588.386H944.327C943.495 588.386 942.821 588.861 942.821 589.436V593.046C942.821 594.792 944.827 596.196 947.296 596.196H1116.66C1125.54 596.196 1132.74 591.114 1132.74 584.847V546.714C1132.73 540.492 1125.54 535.41 1116.66 535.41Z" fill="#6285D9"/>
<path d="M1054.09 365.756H973.069V422.962H1054.09V365.756Z" fill="#FEE6CE"/>
<path d="M973.069 378.799H1054.09" stroke="#EDC59F" stroke-miterlimit="10"/>
<path d="M973.069 389.98H1054.09" stroke="#EDC59F" stroke-miterlimit="10"/>
<path d="M973.069 401.159H1054.09" stroke="#EDC59F" stroke-miterlimit="10"/>
<path d="M973.069 412.34H1054.09" stroke="#EDC59F" stroke-miterlimit="10"/>
<path d="M1134.81 359.928H972.938C971.883 359.856 970.842 360.202 970.041 360.889C969.239 361.577 968.741 362.552 968.655 363.604V367.804C968.683 368.158 968.849 368.486 969.119 368.718C969.388 368.95 969.738 369.067 970.092 369.043H1039.48C1046.44 369.043 1052.09 373.9 1052.09 379.891V410.828C1052.09 416.819 1046.44 421.678 1039.48 421.678H970.092C969.738 421.654 969.389 421.771 969.12 422.002C968.851 422.234 968.684 422.561 968.655 422.915V427.115C968.741 428.167 969.238 429.142 970.04 429.83C970.842 430.518 971.883 430.863 972.938 430.791H1134.81C1143.3 430.791 1150.19 424.868 1150.19 417.564V373.144C1150.2 365.848 1143.31 359.928 1134.81 359.928Z" fill="#6285D9"/>
<path d="M1066.81 658.947H1147.83V602.04H1066.81V658.947Z" fill="#FEE6CE"/>
<path d="M1147.83 615.017H1066.81" stroke="#EDC59F" stroke-miterlimit="10"/>
<path d="M1147.83 626.138H1066.81" stroke="#EDC59F" stroke-miterlimit="10"/>
<path d="M1147.83 637.259H1066.81" stroke="#EDC59F" stroke-miterlimit="10"/>
<path d="M1147.83 648.383H1066.81" stroke="#EDC59F" stroke-miterlimit="10"/>
<path d="M986.082 596.244H1147.97C1149.03 596.17 1150.07 596.514 1150.87 597.203C1151.67 597.891 1152.17 598.867 1152.25 599.919V604.104C1152.22 604.457 1152.06 604.784 1151.79 605.015C1151.52 605.245 1151.17 605.36 1150.81 605.335H1081.43C1074.46 605.335 1068.82 610.166 1068.82 616.128V646.902C1068.82 652.864 1074.46 657.695 1081.43 657.695H1150.81C1151.17 657.669 1151.52 657.784 1151.79 658.015C1152.06 658.245 1152.22 658.573 1152.25 658.926V663.111C1152.17 664.162 1151.67 665.139 1150.87 665.827C1150.07 666.515 1149.03 666.86 1147.97 666.786H986.082C977.589 666.786 970.703 660.895 970.703 653.628V609.423C970.703 602.135 977.589 596.244 986.082 596.244Z" fill="#2C3681"/>
<path d="M1021.38 140.105L1051.45 89.5095L1053.29 135.293L1021.38 140.105Z" fill="#6076A3"/>
<defs>
<filter id="filter0_d_3085_114" x="307.745" y="50.0259" width="740.855" height="669.744" filterUnits="userSpaceOnUse" color-interpolation-filters="sRGB">
<feFlood flood-opacity="0" result="BackgroundImageFix"/>
<feColorMatrix in="SourceAlpha" type="matrix" values="0 0 0 0 0 0 0 0 0 0 0 0 0 0 0 0 0 0 127 0" result="hardAlpha"/>
<feOffset dy="3"/>
<feGaussianBlur stdDeviation="25"/>
<feColorMatrix type="matrix" values="0 0 0 0 1 0 0 0 0 1 0 0 0 0 1 0 0 0 0.463 0"/>
<feBlend mode="normal" in2="BackgroundImageFix" result="effect1_dropShadow_3085_114"/>
<feBlend mode="normal" in="SourceGraphic" in2="effect1_dropShadow_3085_114" result="shape"/>
</filter>
<filter id="filter1_d_3085_114" x="176.878" y="277.231" width="319.287" height="448.606" filterUnits="userSpaceOnUse" color-interpolation-filters="sRGB">
<feFlood flood-opacity="0" result="BackgroundImageFix"/>
<feColorMatrix in="SourceAlpha" type="matrix" values="0 0 0 0 0 0 0 0 0 0 0 0 0 0 0 0 0 0 127 0" result="hardAlpha"/>
<feOffset dy="3"/>
<feGaussianBlur stdDeviation="30"/>
<feColorMatrix type="matrix" values="0 0 0 0 1 0 0 0 0 1 0 0 0 0 1 0 0 0 0.306 0"/>
<feBlend mode="normal" in2="BackgroundImageFix" result="effect1_dropShadow_3085_114"/>
<feBlend mode="normal" in="SourceGraphic" in2="effect1_dropShadow_3085_114" result="shape"/>
</filter>
</defs>
</svg>
