<svg width="40" height="30" viewBox="0 0 40 30" fill="none" xmlns="http://www.w3.org/2000/svg">
<path id="Vector" d="M11.1111 0.980347H6.66667C2.99052 0.980347 0 3.76794 0 7.19463V11.3375C0 14.7642 2.99052 17.5518 6.66667 17.5518H11.1111C11.8246 17.5518 12.4993 17.4193 13.1443 17.2248C12.2483 22.1035 7.70978 25.8375 2.22222 25.8375C0.993926 25.8375 0 26.764 0 27.9089C0 29.0539 0.993926 29.9803 2.22222 29.9803C10.7987 29.9803 17.7778 23.4748 17.7778 15.4803V7.19463C17.7778 3.76794 14.7873 0.980347 11.1111 0.980347ZM33.3333 0.980347H28.8889C25.2127 0.980347 22.2222 3.76794 22.2222 7.19463V11.3375C22.2222 14.7642 25.2127 17.5518 28.8889 17.5518H33.3333C34.0468 17.5518 34.7215 17.4193 35.3665 17.2248C34.4705 22.1035 29.932 25.8375 24.4444 25.8375C23.2161 25.8375 22.2222 26.764 22.2222 27.9089C22.2222 29.0539 23.2161 29.9803 24.4444 29.9803C33.0209 29.9803 40 23.4748 40 15.4803V7.19463C40 3.76794 37.0095 0.980347 33.3333 0.980347Z" fill="#FFC27A"/>
</svg>
